<svg height="782" width="720" xmlns="http://www.w3.org/2000/svg">
<rect height="782" fill="#555" width="720"></rect>
<text fill="#7f7" font-family="Courier New" font-size="12" xml:space="preserve">
<tspan x="10" y="26">2 megabytes installed</tspan>
<tspan x="10" y="42"></tspan>
<tspan x="10" y="58">node_modules</tspan>
<tspan x="10" y="74">└─┬ utils@0.3.1 </tspan>
<tspan x="10" y="90">  ├─┬ any@1.0.0 </tspan>
<tspan x="10" y="106">  │ └── make-iterator@0.1.1 </tspan>
<tspan x="10" y="122">  ├── arr-diff@1.1.0 </tspan>
<tspan x="10" y="138">  ├── arr-flatten@1.0.3 </tspan>
<tspan x="10" y="154">  ├─┬ arr-map@2.0.2 </tspan>
<tspan x="10" y="170">  │ └─┬ make-iterator@1.0.0 </tspan>
<tspan x="10" y="186">  │   └── kind-of@3.1.0 </tspan>
<tspan x="10" y="202">  ├── arr-union@3.1.0 </tspan>
<tspan x="10" y="218">  ├── array-each@0.1.1 </tspan>
<tspan x="10" y="234">  ├── array-slice@0.2.3 </tspan>
<tspan x="10" y="250">  ├── array-unique@0.2.1 </tspan>
<tspan x="10" y="266">  ├─┬ center-align@0.1.3 </tspan>
<tspan x="10" y="282">  │ ├─┬ align-text@0.1.4 </tspan>
<tspan x="10" y="298">  │ │ ├── kind-of@3.1.0 </tspan>
<tspan x="10" y="314">  │ │ ├── longest@1.0.1 </tspan>
<tspan x="10" y="330">  │ │ └── repeat-string@1.6.1 </tspan>
<tspan x="10" y="346">  │ └── lazy-cache@1.0.4 </tspan>
<tspan x="10" y="362">  ├── export-dirs@0.2.4 </tspan>
<tspan x="10" y="378">  ├── export-files@2.1.1 </tspan>
<tspan x="10" y="394">  ├── for-in@0.1.8 </tspan>
<tspan x="10" y="410">  ├─┬ for-own@0.1.5 </tspan>
<tspan x="10" y="426">  │ └── for-in@1.0.2 </tspan>
<tspan x="10" y="442">  ├── has-values@0.1.4 </tspan>
<tspan x="10" y="458">  ├─┬ is-number@2.1.0 </tspan>
<tspan x="10" y="474">  │ └── kind-of@3.1.0 </tspan>
<tspan x="10" y="490">  ├─┬ is-plain-object@2.0.1 </tspan>
<tspan x="10" y="506">  │ └── isobject@1.0.2 </tspan>
<tspan x="10" y="522">  ├─┬ kind-of@2.0.1 </tspan>
<tspan x="10" y="538">  │ └── is-buffer@1.1.5 </tspan>
<tspan x="10" y="554">  ├─┬ make-iterator@0.2.1 </tspan>
<tspan x="10" y="570">  │ └── kind-of@3.1.0 </tspan>
<tspan x="10" y="586">  ├── object.defaults@0.3.0 </tspan>
<tspan x="10" y="602">  ├─┬ object.filter@0.3.0 </tspan>
<tspan x="10" y="618">  │ └── make-iterator@0.1.1 </tspan>
<tspan x="10" y="634">  ├─┬ object.omit@2.0.1 </tspan>
<tspan x="10" y="650">  │ └── is-extendable@0.1.1 </tspan>
<tspan x="10" y="666">  ├─┬ object.pick@1.2.0 </tspan>
<tspan x="10" y="682">  │ └─┬ isobject@2.1.0 </tspan>
<tspan x="10" y="698">  │   └── isarray@1.0.0 </tspan>
<tspan x="10" y="714">  ├── object.reduce@0.1.7 </tspan>
<tspan x="10" y="730">  ├── right-align@0.1.3 </tspan>
<tspan x="10" y="746">  ├── striptags@2.2.1 </tspan>
<tspan x="10" y="762">  └── word-wrap@1.2.1</tspan>
</text>
</svg>
